<?xml version="1.0" encoding="utf-8"?>
<!-- Generator: Adobe Illustrator 19.0.0, SVG Export Plug-In . SVG Version: 6.00 Build 0)  -->
<!DOCTYPE svg PUBLIC "-//W3C//DTD SVG 1.1//EN" "http://www.w3.org/Graphics/SVG/1.1/DTD/svg11.dtd">
<svg version="1.1" id="madc_events" xmlns="http://www.w3.org/2000/svg" xmlns:xlink="http://www.w3.org/1999/xlink" x="0px"
	 y="0px" viewBox="0 0 369.3 285.1" enable-background="new 0 0 369.3 285.1" xml:space="preserve">
<rect id="XMLID_2084_" x="0" y="33.8" fill="#EFF0F6" width="368.5" height="252"/>
<rect id="XMLID_89_" x="56.3" y="1" fill="none" width="247.8" height="28.1"/>
<!--<text id="XMLID_1970_" transform="matrix(1 0 0 1 87.0628 11.3888)" fill="#0061DE" font-family="'TPHero-Regular'" font-size="13px">Billed Pages Last Billing Cycle</text>-->
<g id="XMLID_3688_">
	<path id="XMLID_3696_" fill="#7E7E85" d="M242.5,185.7c0,36.2-29.4,65.6-65.6,65.6s-65.6-29.4-65.6-65.6s29.4-65.6,65.6-65.6
		S242.5,149.4,242.5,185.7z M176.9,148.2c-20.7,0-37.5,16.8-37.5,37.5s16.8,37.5,37.5,37.5s37.5-16.8,37.5-37.5
		S197.5,148.2,176.9,148.2z"/>
	<g id="XMLID_3691_">
		<defs>
			<polygon id="XMLID_3692_" points="176.9,185.7 176.9,95.7 111.8,133.2 92.8,226.5 			"/>
		</defs>
		<clipPath id="XMLID_21_">
			<use xlink:href="#XMLID_3692_"  overflow="visible"/>
		</clipPath>
		<path id="XMLID_3693_" clip-path="url(#XMLID_21_)" fill="#FAA51A" d="M176.9,120.1c36.2,0,65.6,29.4,65.6,65.6
			s-29.4,65.6-65.6,65.6s-65.6-29.4-65.6-65.6S140.6,120.1,176.9,120.1z M139.4,185.7c0,20.7,16.8,37.5,37.5,37.5
			s37.5-16.8,37.5-37.5s-16.8-37.5-37.5-37.5S139.4,165,139.4,185.7z"/>
	</g>
	
		<line id="XMLID_3690_" fill="none" stroke="#FFFFFF" stroke-width="1.3835" stroke-miterlimit="10" x1="176.9" y1="148.2" x2="176.9" y2="120.1"/>
	
		<line id="XMLID_3689_" fill="none" stroke="#FFFFFF" stroke-width="1.3835" stroke-miterlimit="10" x1="117.8" y1="213.9" x2="143.3" y2="202.1"/>
</g>
<rect id="XMLID_86_" x="104.4" y="85.4" fill="none" width="76.7" height="17.7"/>
<text id="XMLID_6796_" transform="matrix(1 0 0 1 104.4174 94.2284)" fill="#1D1D26" font-family="'TPHero-Bold'" font-size="11px">10,652 color</text>
<rect id="XMLID_85_" x="206.4" y="85.4" fill="none" width="76.7" height="17.7"/>
<text id="XMLID_3700_" transform="matrix(1 0 0 1 206.4091 94.2284)" fill="#1D1D26" font-family="'TPHero-Bold'" font-size="11px">311,941 mono</text>
<rect id="XMLID_84_" x="92.5" y="50.4" fill="none" width="205" height="28.3"/>
<text id="XMLID_83_" transform="matrix(1 0 0 1 92.5412 59.2314)" fill="#1D1D26" font-family="'TPHero-Bold'" font-size="11px">Billed Pages Total: 1,384,032</text>
<rect id="XMLID_3677_" x="87.1" y="86.1" fill="#FAA51A" width="10" height="10"/>
<rect id="XMLID_3703_" x="187.1" y="85.1" fill="#7E7E85" width="10" height="10"/>
</svg>
