<?xml version="1.0" encoding="utf-8"?>
<!-- Generator: Adobe Illustrator 19.0.0, SVG Export Plug-In . SVG Version: 6.00 Build 0)  -->
<!DOCTYPE svg PUBLIC "-//W3C//DTD SVG 1.1//EN" "http://www.w3.org/Graphics/SVG/1.1/DTD/svg11.dtd">
<svg version="1.1" id="madc_events" xmlns="http://www.w3.org/2000/svg" xmlns:xlink="http://www.w3.org/1999/xlink" x="0px"
	 y="0px" viewBox="0 0 369.3 285.1" enable-background="new 0 0 369.3 285.1" xml:space="preserve">
<g id="XMLID_99_">
	<g id="XMLID_1002_">
		<g id="XMLID_105_">
			<polyline id="XMLID_113_" fill="none" stroke="#EC008C" stroke-width="1.0153" stroke-miterlimit="10" points="812.7,1447 
				812.7,1458.6 801.1,1458.6 			"/>
			
				<line id="XMLID_112_" fill="none" stroke="#EC008C" stroke-width="1.0153" stroke-miterlimit="10" stroke-dasharray="23.3885,23.3885" x1="777.7" y1="1458.6" x2="-707.4" y2="1458.6"/>
			<polyline id="XMLID_111_" fill="none" stroke="#EC008C" stroke-width="1.0153" stroke-miterlimit="10" points="-719.1,1458.6 
				-730.7,1458.6 -730.7,1447 			"/>
			
				<line id="XMLID_110_" fill="none" stroke="#EC008C" stroke-width="1.0153" stroke-miterlimit="10" stroke-dasharray="23.0779,23.0779" x1="-730.7" y1="1423.9" x2="-730.7" y2="-1149.2"/>
			<polyline id="XMLID_109_" fill="none" stroke="#EC008C" stroke-width="1.0153" stroke-miterlimit="10" points="-730.7,-1160.8 
				-730.7,-1172.3 -719.1,-1172.3 			"/>
			
				<line id="XMLID_108_" fill="none" stroke="#EC008C" stroke-width="1.0153" stroke-miterlimit="10" stroke-dasharray="23.3885,23.3885" x1="-695.7" y1="-1172.3" x2="789.4" y2="-1172.3"/>
			<polyline id="XMLID_107_" fill="none" stroke="#EC008C" stroke-width="1.0153" stroke-miterlimit="10" points="801.1,-1172.3 
				812.7,-1172.3 812.7,-1160.8 			"/>
			
				<line id="XMLID_106_" fill="none" stroke="#EC008C" stroke-width="1.0153" stroke-miterlimit="10" stroke-dasharray="23.0779,23.0779" x1="812.7" y1="-1137.7" x2="812.7" y2="1435.5"/>
		</g>
	</g>
	<rect id="XMLID_88_" x="52.9" y="-0.8" fill="none" width="247.8" height="28.1"/>
	<!--
		<text id="XMLID_1972_" transform="matrix(1 0 0 1 121.5674 9.6291)" fill="#0061DE" font-family="'TPHero-Regular'" font-size="13px">Hardware Orders</text>-->
	<rect id="XMLID_2083_" x="0.1" y="33" fill="#EFF0F6" width="368.5" height="252"/>
	<rect id="XMLID_87_" x="84.9" y="81.2" fill="none" width="49" height="18"/>
	
		<text id="XMLID_2081_" transform="matrix(1 0 0 1 84.8628 89.1393)" fill="#1C1D26" font-family="'TPHero-Regular'" font-size="10px">Open</text>
	<rect id="XMLID_81_" x="206.9" y="81.2" fill="none" width="112.2" height="20.8"/>
	
		<text id="XMLID_2079_" transform="matrix(1 0 0 1 206.8531 89.1393)" fill="#1C1D26" font-family="'TPHero-Regular'" font-size="10px">Shipped last 30 days</text>
	
		<circle id="XMLID_2043_" fill="#00AD21" stroke="#C9C9D1" stroke-width="1.2964" stroke-miterlimit="10" cx="100.7" cy="174.8" r="65.5"/>
	<rect id="XMLID_21_" x="78.6" y="161.6" fill="none" width="48.5" height="40.3"/>
	
		<text id="XMLID_2006_" transform="matrix(1 0 0 1 78.587 187.9428)" fill="#FFFFFF" font-family="'TPHero-Regular'" font-size="33px">51</text>
	
		<circle id="XMLID_2003_" fill="#7E7E85" stroke="#C9C9D1" stroke-width="1.2964" stroke-miterlimit="10" cx="255.2" cy="174.8" r="65.5"/>
	<rect id="XMLID_17_" x="225.1" y="161.6" fill="none" width="74" height="38.3"/>
	
		<text id="XMLID_825_" transform="matrix(1 0 0 1 225.0728 187.9428)" fill="#FFFFFF" font-family="'TPHero-Regular'" font-size="33px">264</text>
</g>
</svg>
