<?xml version="1.0" encoding="utf-8"?>
<!-- Generator: Adobe Illustrator 19.0.0, SVG Export Plug-In . SVG Version: 6.00 Build 0)  -->
<!DOCTYPE svg PUBLIC "-//W3C//DTD SVG 1.1//EN" "http://www.w3.org/Graphics/SVG/1.1/DTD/svg11.dtd">
<svg version="1.1" xmlns="http://www.w3.org/2000/svg" xmlns:xlink="http://www.w3.org/1999/xlink" x="0px" y="0px"
	 viewBox="0 0 369.3 243.4" enable-background="new 0 0 369.3 243.4" xml:space="preserve">
<g id="Layer_2" display="none">
	<g id="XMLID_17_" display="inline">
		<rect id="XMLID_87_" x="58.6" y="7.1" fill="none" width="247.8" height="28.1"/>
		<text id="XMLID_3225_" transform="matrix(1 0 0 1 130.0162 17.4758)" font-family="'TPHero-Regular'" font-size="13px">Fleet Availability</text>
		<rect id="XMLID_82_" x="94" y="50.6" fill="none" width="26.9" height="14.5"/>
		
			<text id="XMLID_3219_" transform="matrix(1 0 0 1 94.0362 58.5705)" fill="#1D1D26" font-family="'TPHero-Regular'" font-size="10px">100%</text>
		<rect id="XMLID_81_" x="100" y="211.6" fill="none" width="26.9" height="14.5"/>
		
			<text id="XMLID_3217_" transform="matrix(1 0 0 1 100.0362 219.5705)" fill="#1D1D26" font-family="'TPHero-Regular'" font-size="10px">0%</text>
		<rect id="XMLID_21_" x="94" y="132.6" fill="none" width="26.9" height="14.5"/>
		
			<text id="XMLID_3215_" transform="matrix(1 0 0 1 94.0362 140.5705)" fill="#1D1D26" font-family="'TPHero-Regular'" font-size="10px">50%</text>
		
			<line id="XMLID_3214_" fill="none" stroke="#A4A4A9" stroke-width="0.9954" stroke-miterlimit="10" x1="130" y1="52.6" x2="130" y2="216.1"/>
		<line id="XMLID_3213_" fill="none" stroke="#A4A4A9" stroke-miterlimit="10" x1="233" y1="215.9" x2="129.7" y2="215.9"/>
		<line id="XMLID_3212_" fill="none" stroke="#A4A4A9" stroke-miterlimit="10" x1="233" y1="177.9" x2="129.7" y2="177.9"/>
		<line id="XMLID_3187_" fill="none" stroke="#A4A4A9" stroke-miterlimit="10" x1="233" y1="138.9" x2="129.7" y2="138.9"/>
		<line id="XMLID_3186_" fill="none" stroke="#A4A4A9" stroke-miterlimit="10" x1="233" y1="93.9" x2="129.7" y2="93.9"/>
		<line id="XMLID_3185_" fill="none" stroke="#A4A4A9" stroke-miterlimit="10" x1="233" y1="52.9" x2="129.7" y2="52.9"/>
		<rect id="XMLID_3184_" x="161.9" y="61" fill="#39B54A" width="33.2" height="154.9"/>
	</g>
</g>
<g id="Layer_3" display="none">
	<g id="XMLID_83_" display="inline">
		<rect id="XMLID_88_" x="58.6" y="7.8" fill="none" width="247.8" height="28.1"/>
		<text id="XMLID_3118_" transform="matrix(1 0 0 1 135.3072 18.1393)" font-family="'TPHero-Regular'" font-size="13px">Response Time</text>
		<rect id="XMLID_86_" x="94" y="51.2" fill="none" width="26.9" height="14.5"/>
		
			<text id="XMLID_2686_" transform="matrix(1 0 0 1 94.0362 59.2331)" fill="#1D1D26" font-family="'TPHero-Regular'" font-size="10px">100%</text>
		<rect id="XMLID_85_" x="100" y="212.2" fill="none" width="26.9" height="14.5"/>
		
			<text id="XMLID_2659_" transform="matrix(1 0 0 1 100.0362 220.2331)" fill="#1D1D26" font-family="'TPHero-Regular'" font-size="10px">0%</text>
		<rect id="XMLID_84_" x="94" y="133.2" fill="none" width="26.9" height="14.5"/>
		
			<text id="XMLID_2616_" transform="matrix(1 0 0 1 94.0362 141.2331)" fill="#1D1D26" font-family="'TPHero-Regular'" font-size="10px">50%</text>
		
			<line id="XMLID_2613_" fill="none" stroke="#A4A4A9" stroke-width="0.9954" stroke-miterlimit="10" x1="130" y1="53.3" x2="130" y2="216.8"/>
		<line id="XMLID_2611_" fill="none" stroke="#A4A4A9" stroke-miterlimit="10" x1="233" y1="216.5" x2="129.7" y2="216.5"/>
		<line id="XMLID_2610_" fill="none" stroke="#A4A4A9" stroke-miterlimit="10" x1="233" y1="178.5" x2="129.7" y2="178.5"/>
		<line id="XMLID_2609_" fill="none" stroke="#A4A4A9" stroke-miterlimit="10" x1="233" y1="139.5" x2="129.7" y2="139.5"/>
		<line id="XMLID_2608_" fill="none" stroke="#A4A4A9" stroke-miterlimit="10" x1="233" y1="94.5" x2="129.7" y2="94.5"/>
		<line id="XMLID_2607_" fill="none" stroke="#A4A4A9" stroke-miterlimit="10" x1="233" y1="53.5" x2="129.7" y2="53.5"/>
		<rect id="XMLID_2602_" x="161.9" y="61.6" fill="#1C64B4" width="33.2" height="154.9"/>
	</g>
</g>
<g id="Layer_4"><!--
	<rect id="XMLID_92_" x="58.6" y="6.4" fill="none" width="247.8" height="28.1"/>
	<text id="XMLID_2595_" transform="matrix(1 0 0 1 140.442 16.806)" font-family="'TPHero-Regular'" font-size="13px">Consumables</text>
	<rect id="XMLID_91_" x="94" y="49.9" fill="none" width="26.9" height="14.5"/>
	-->
		<text id="XMLID_2588_" transform="matrix(1 0 0 1 94.0359 57.9001)" fill="#1D1D26" font-family="'TPHero-Regular'" font-size="10px">100%</text>
	<rect id="XMLID_90_" x="100" y="210.9" fill="none" width="26.9" height="14.5"/>
	
		<text id="XMLID_2586_" transform="matrix(1 0 0 1 100.0359 218.9001)" fill="#1D1D26" font-family="'TPHero-Regular'" font-size="10px">0%</text>
	<rect id="XMLID_89_" x="94" y="131.9" fill="none" width="26.9" height="14.5"/>
	
		<text id="XMLID_2578_" transform="matrix(1 0 0 1 94.0359 139.9001)" fill="#1D1D26" font-family="'TPHero-Regular'" font-size="10px">50%</text>
	
		<line id="XMLID_2577_" fill="none" stroke="#A4A4A9" stroke-width="0.9954" stroke-miterlimit="10" x1="130" y1="52" x2="130" y2="215.5"/>
	<line id="XMLID_2576_" fill="none" stroke="#A4A4A9" stroke-miterlimit="10" x1="233" y1="215.2" x2="129.7" y2="215.2"/>
	<line id="XMLID_2575_" fill="none" stroke="#A4A4A9" stroke-miterlimit="10" x1="233" y1="177.2" x2="129.7" y2="177.2"/>
	<line id="XMLID_2553_" fill="none" stroke="#A4A4A9" stroke-miterlimit="10" x1="233" y1="138.2" x2="129.7" y2="138.2"/>
	<line id="XMLID_2547_" fill="none" stroke="#A4A4A9" stroke-miterlimit="10" x1="233" y1="93.2" x2="129.7" y2="93.2"/>
	<line id="XMLID_2517_" fill="none" stroke="#A4A4A9" stroke-miterlimit="10" x1="233" y1="52.2" x2="129.7" y2="52.2"/>
	<rect id="XMLID_2515_" x="161.9" y="60.3" fill="#FAA51A" width="33.2" height="154.9"/>
</g>
</svg>
