<?xml version="1.0" encoding="utf-8"?>
<!-- Generator: Adobe Illustrator 19.0.0, SVG Export Plug-In . SVG Version: 6.00 Build 0)  -->
<!DOCTYPE svg PUBLIC "-//W3C//DTD SVG 1.1//EN" "http://www.w3.org/Graphics/SVG/1.1/DTD/svg11.dtd">
<svg version="1.1" xmlns="http://www.w3.org/2000/svg" xmlns:xlink="http://www.w3.org/1999/xlink" x="0px" y="0px"
	 viewBox="0 0 369.3 285.1" enable-background="new 0 0 369.3 285.1" xml:space="preserve">
<g id="asset_count" display="none">
	<rect id="XMLID_1963_" x="0.7" y="33.1" display="inline" fill="#EFF0F6" width="368.5" height="252"/>
	<rect id="XMLID_21_" x="43.5" y="0.3" display="inline" fill="none" width="247.8" height="28.1"/>
	
		<text id="XMLID_1964_" transform="matrix(1 0 0 1 129.4754 10.7187)" display="inline" fill="#0061DE" font-family="'TPHero-Regular'" font-size="13px">Asset Count</text>
	
		<circle id="XMLID_3699_" display="inline" fill="#00AD21" stroke="#C9C9D1" stroke-width="1.2964" stroke-miterlimit="10" cx="174.8" cy="154.4" r="65.5"/>
	<rect id="XMLID_17_" x="130.7" y="141.2" display="inline" fill="none" width="140" height="54"/>
	
		<text id="XMLID_3676_" transform="matrix(1 0 0 1 130.6758 167.5446)" display="inline" fill="#FFFFFF" font-family="'TPHero-Regular'" font-size="33px">1,854</text>
</g>
<g id="madc_events">
	<g id="XMLID_81_">
		<rect id="XMLID_1977_" x="0" y="32.8" fill="#EFF0F6" width="368.5" height="252"/>
		<g id="XMLID_94_">
			<rect id="XMLID_1994_" x="68" y="230.9" fill="#00AD21" width="10.3" height="10.3"/>
			<rect id="XMLID_95_" x="83" y="232.2" fill="none" width="66.8" height="14.9"/>
			
				<text id="XMLID_1992_" transform="matrix(1 0 0 1 83.0489 240.2287)" fill="#1C1D26" font-family="'TPHero-Regular'" font-size="10px">Moves (475)</text>
		</g>
		<g id="XMLID_92_">
			<rect id="XMLID_1997_" x="150.1" y="230.9" fill="#FAA51A" width="10.3" height="10.3"/>
			<rect id="XMLID_93_" x="165.1" y="232.2" fill="none" width="91.7" height="19.6"/>
			
				<text id="XMLID_1995_" transform="matrix(1 0 0 1 165.1055 240.2287)" fill="#1C1D26" font-family="'TPHero-Regular'" font-size="10px">Additions (375)</text>
		</g>
		<g id="XMLID_90_">
			<rect id="XMLID_2000_" x="244.9" y="231.6" fill="#0061DE" width="10.3" height="10.3"/>
			<rect id="XMLID_91_" x="259.9" y="232.9" fill="none" width="95.2" height="18.9"/>
			
				<text id="XMLID_1998_" transform="matrix(1 0 0 1 259.9302 240.8952)" fill="#1C1D26" font-family="'TPHero-Regular'" font-size="10px">IP Changes (250)</text>
		</g>
		<rect id="XMLID_2004_" x="67.2" y="258" fill="#884FAD" width="10.3" height="10.3"/>
		<rect id="XMLID_89_" x="82.2" y="259.3" fill="none" width="106.3" height="11.2"/>
		
			<text id="XMLID_2001_" transform="matrix(1 0 0 1 82.211 267.3134)" fill="#1C1D26" font-family="'TPHero-Regular'" font-size="10px">Decommissions (150)</text>
		<rect id="XMLID_88_" x="192.4" y="258" fill="#006446" width="10.3" height="10.3"/>
		<rect id="XMLID_87_" x="209.4" y="259.3" fill="none" width="92.4" height="12.5"/>
		
			<text id="XMLID_86_" transform="matrix(1 0 0 1 209.3956 267.3378)" fill="#1C1D26" font-family="'TPHero-Regular'" font-size="10px">Swaps (50)</text>
		<rect id="XMLID_85_" x="62" y="0" fill="none" width="247.8" height="28.1"/>
		
			<text id="XMLID_1966_" transform="matrix(1 0 0 1 102.8746 10.3876)" fill="#0061DE" font-family="'TPHero-Regular'" font-size="13px">MADC Events last 30 days</text>
		<rect id="XMLID_84_" x="40.5" y="58.1" fill="none" width="30.2" height="14.3"/>
		
			<text id="XMLID_1989_" transform="matrix(1 0 0 1 40.5108 66.1315)" fill="#1D1D26" font-family="'TPHero-Regular'" font-size="10px">500</text>
		<rect id="XMLID_83_" x="37.5" y="133.5" fill="none" width="43.9" height="15.8"/>
		
			<text id="XMLID_1981_" transform="matrix(1 0 0 1 37.5186 141.4653)" fill="#1D1D26" font-family="'TPHero-Regular'" font-size="10px">250</text>
		<rect id="XMLID_82_" x="46.5" y="211.1" fill="none" width="26.9" height="14.5"/>
		
			<text id="XMLID_1987_" transform="matrix(1 0 0 1 46.4673 219.131)" fill="#1D1D26" font-family="'TPHero-Regular'" font-size="10px">0</text>
		<line id="XMLID_1984_" fill="none" stroke="#A4A4A9" stroke-miterlimit="10" x1="69.7" y1="60.2" x2="69.7" y2="217.3"/>
		
			<line id="XMLID_1983_" fill="none" stroke="#A4A4A9" stroke-width="1.5007" stroke-miterlimit="10" x1="302.1" y1="216.8" x2="69.5" y2="216.8"/>
		
			<line id="XMLID_1980_" fill="none" stroke="#A4A4A9" stroke-width="1.5007" stroke-miterlimit="10" x1="303.1" y1="139.1" x2="70.5" y2="139.1"/>
		
			<line id="XMLID_1979_" fill="none" stroke="#A4A4A9" stroke-width="1.5007" stroke-miterlimit="10" x1="302.1" y1="60.4" x2="69.5" y2="60.4"/>
		<rect id="XMLID_1978_" x="108.3" y="71.5" fill="#6EBE44" width="18.9" height="145.3"/>
		<rect id="XMLID_2005_" x="141" y="100.1" fill="#FAA51A" width="18.9" height="116.7"/>
		<rect id="XMLID_2008_" x="201.3" y="179.2" fill="#884FAD" width="18.9" height="37.6"/>
		<rect id="XMLID_2011_" x="169.6" y="139" fill="#0061DE" width="18.9" height="77.8"/>
		<rect id="XMLID_2013_" x="233" y="200.8" fill="#006446" width="18.9" height="16"/>
	</g>
</g>
</svg>
