<?xml version="1.0" encoding="utf-8"?>
<!-- Generator: Adobe Illustrator 19.0.0, SVG Export Plug-In . SVG Version: 6.00 Build 0)  -->
<!DOCTYPE svg PUBLIC "-//W3C//DTD SVG 1.1//EN" "http://www.w3.org/Graphics/SVG/1.1/DTD/svg11.dtd">
<svg version="1.1" id="madc_events" xmlns="http://www.w3.org/2000/svg" xmlns:xlink="http://www.w3.org/1999/xlink" x="0px"
	 y="0px" viewBox="0 0 369.3 285.1" enable-background="new 0 0 369.3 285.1" xml:space="preserve">
<g id="XMLID_17_">
	<rect id="XMLID_2029_" x="0" y="32.8" fill="#EFF0F6" width="368.5" height="252"/>
	<g id="XMLID_101_">
		<path id="XMLID_449_" fill="#7E7E85" d="M349.1,197.9c0,36.9-29.9,66.9-66.9,66.9s-66.9-29.9-66.9-66.9s29.9-66.9,66.9-66.9
			S349.1,161,349.1,197.9z M282.3,159.7c-21.1,0-38.2,17.1-38.2,38.2s17.1,38.2,38.2,38.2c21.1,0,38.2-17.1,38.2-38.2
			S303.4,159.7,282.3,159.7z"/>
		<g id="XMLID_104_">
			<defs>
				<polygon id="XMLID_105_" points="282.3,197.9 282.3,106.2 258.5,99.5 273.2,117.5 				"/>
			</defs>
			<clipPath id="XMLID_82_">
				<use xlink:href="#XMLID_105_"  overflow="visible"/>
			</clipPath>
			<path id="XMLID_174_" clip-path="url(#XMLID_82_)" fill="#44434E" d="M282.3,131.1c36.9,0,66.9,29.9,66.9,66.9
				s-29.9,66.9-66.9,66.9s-66.9-29.9-66.9-66.9S245.4,131.1,282.3,131.1z M244.1,197.9c0,21.1,17.1,38.2,38.2,38.2
				s38.2-17.1,38.2-38.2s-17.1-38.2-38.2-38.2S244.1,176.8,244.1,197.9z"/>
		</g>
		
			<line id="XMLID_103_" fill="none" stroke="#FFFFFF" stroke-width="1.4099" stroke-miterlimit="10" x1="282.3" y1="159.7" x2="282.3" y2="131.1"/>
		
			<line id="XMLID_102_" fill="none" stroke="#FFFFFF" stroke-width="1.4099" stroke-miterlimit="10" x1="275.9" y1="131.7" x2="277.6" y2="160.3"/>
	</g>
	<rect id="XMLID_2078_" x="229.1" y="70.4" fill="#44434E" width="10.3" height="10.3"/>
	<rect id="XMLID_2077_" x="229.1" y="94.4" fill="#A4A4A9" width="10.3" height="10.3"/>
	<rect id="XMLID_100_" x="245.2" y="71.6" fill="none" width="129.7" height="44"/>
	<text id="XMLID_2075_" transform="matrix(1 0 0 1 245.2181 79.6305)"><tspan x="0" y="0" fill="#1D1D26" font-family="'TPHero-Regular'" font-size="10px">Auto (1 asset) </tspan><tspan x="0" y="24.1" fill="#1D1D26" font-family="'TPHero-Regular'" font-size="10px">Manual (253 assets)</tspan></text>
	<g id="XMLID_97_">
		<rect id="XMLID_2073_" x="23.8" y="70.4" fill="#00AD21" width="10.3" height="10.3"/>
		<rect id="XMLID_2074_" x="23.8" y="94.4" fill="#7E7E85" width="10.3" height="10.3"/>
		<g id="XMLID_1976_">
			<path id="XMLID_2066_" fill="#39B54A" d="M165.7,191.7c5.1,36.6-20.4,70.3-57,75.4s-70.3-20.4-75.4-57s20.4-70.3,57-75.4
				S160.6,155.1,165.7,191.7z M94.2,163.1c-20.9,2.9-35.4,22.2-32.5,43.1s22.2,35.4,43.1,32.5s35.4-22.2,32.5-43.1
				S115.1,160.2,94.2,163.1z"/>
			<g id="XMLID_2061_">
				<defs>
					<polygon id="XMLID_2062_" points="99.4,200.9 86.8,110.1 74.2,122.3 66.6,129.9 					"/>
				</defs>
				<clipPath id="XMLID_83_">
					<use xlink:href="#XMLID_2062_"  overflow="visible"/>
				</clipPath>
				<path id="XMLID_2063_" clip-path="url(#XMLID_83_)" fill="#7E7E85" d="M90.2,134.7c36.6-5.1,70.3,20.4,75.4,57
					s-20.4,70.3-57,75.4s-70.3-20.4-75.4-57S53.6,139.8,90.2,134.7z M61.6,206.2c2.9,20.9,22.2,35.4,43.1,32.5s35.4-22.2,32.5-43.1
					s-22.2-35.4-43.1-32.5S58.7,185.3,61.6,206.2z"/>
			</g>
			
				<line id="XMLID_2060_" fill="none" stroke="#FFFFFF" stroke-width="1.4099" stroke-miterlimit="10" x1="94.2" y1="163.1" x2="90.2" y2="134.7"/>
			
				<line id="XMLID_2059_" fill="none" stroke="#FFFFFF" stroke-width="1.4099" stroke-miterlimit="10" x1="70.7" y1="140.9" x2="83.3" y2="166.7"/>
		</g>
		<rect id="XMLID_99_" x="39.9" y="71.6" fill="none" width="147.3" height="57.5"/>
		<text id="XMLID_2070_" transform="matrix(1 0 0 1 39.8748 79.6303)"><tspan x="0" y="0" fill="#1D1D26" font-family="'TPHero-Regular'" font-size="10px">97% successful reads </tspan><tspan x="0" y="24.1" fill="#1D1D26" font-family="'TPHero-Regular'" font-size="10px">3% missed reads (254 assets)</tspan></text>
		<rect id="XMLID_98_" x="70.9" y="51.1" fill="none" width="100.7" height="17.2"/>
		<text id="XMLID_2042_" transform="matrix(1 0 0 1 70.889 59.1711)" fill="#1D1D26" font-family="'TPHero-Bold'" font-size="10px">All Reads</text>
	</g>
	<rect id="XMLID_96_" x="243.9" y="52.6" fill="none" width="100.7" height="17.2"/>
	
		<text id="XMLID_2058_" transform="matrix(1 0 0 1 243.8846 60.6711)" fill="#1D1D26" font-family="'TPHero-Bold'" font-size="10px">Missed Reads</text>
	<rect id="XMLID_21_" x="46.8" y="0" fill="none" width="247.8" height="28.1"/>
	
		<text id="XMLID_1968_" transform="matrix(1 0 0 1 130.3599 10.3883)" fill="#0061DE" font-family="'TPHero-Regular'" font-size="13px">Meter Reads</text>
	<line id="XMLID_2072_" fill="none" stroke="#C9C9D1" stroke-miterlimit="10" x1="195.6" y1="52" x2="195.6" y2="266"/>
</g>
</svg>
