<?xml version="1.0" standalone="no"?>
<!DOCTYPE svg PUBLIC "-//W3C//DTD SVG 1.1//EN" "http://www.w3.org/Graphics/SVG/1.1/DTD/svg11.dtd">
<svg xmlns="http://www.w3.org/2000/svg">
<metadata>Copyright (C) 2015 by original authors @ fontello.com</metadata>
<defs>
<font id="lxk-ui" horiz-adv-x="1000" >
<font-face font-family="lxk-ui" font-weight="400" font-stretch="normal" units-per-em="1000" ascent="850" descent="-150" />
<missing-glyph horiz-adv-x="1000" />
<glyph glyph-name="glyph" unicode="&#xe800;" d="m500 642c-184 0-333-150-333-334 0-77 26-147 70-204l-58-58 59-59 58 58c56-44 127-70 204-70s148 26 204 70l58-58 59 59-58 58c44 57 70 127 70 204 0 184-149 334-333 334z m0-584c-138 0-250 113-250 250s112 250 250 250 250-112 250-250-112-250-250-250z m42 417h-84v-184l139-139 59 59-114 115z m-380 213c-49-48-49-128 0-176l176 176c-48 49-128 49-176 0z m676 0c-48 49-128 49-176 0l176-176c49 48 49 128 0 176z" horiz-adv-x="1000" />
<glyph glyph-name="glyph-1" unicode="&#xe801;" d="m868 433h-165l-180 273c-7 12-21 19-35 19-15 0-28-8-35-20l-160-272h-173c-28 0-48-28-39-55l131-374c6-20 24-29 45-29h476c21 0 39 9 45 29l134 371c9 30-13 58-44 58z m-493-333c0-23-19-42-42-42s-41 19-41 42v167c0 23 18 41 41 41s42-18 42-41v-167z m167 0c0-23-19-42-42-42s-42 19-42 42v167c0 23 19 41 42 41s42-18 42-41v-167z m-152 333l101 172 112-172h-213z m318-333c0-23-18-42-41-42s-42 19-42 42v167c0 23 19 41 42 41s41-18 41-41v-167z" horiz-adv-x="1000" />
<glyph glyph-name="glyph-2" unicode="&#xe802;" d="m408 487l137-137-137-137 59-59 196 196-196 196z m89 280c-231 0-417-187-417-417s186-417 417-417 416 187 416 417c0 230-186 417-416 417z m0-750c-184 0-334 149-334 333s150 333 334 333 333-149 333-333c0-184-150-333-333-333z" horiz-adv-x="1000" />
<glyph glyph-name="glyph-3" unicode="&#xe803;" d="m500 767c-230 0-417-187-417-417s187-417 417-417 417 187 417 417c0 230-187 417-417 417z m-32-623l-59 59 147 147-147 147 59 59 206-206-206-206z" horiz-adv-x="1000" />
<glyph glyph-name="glyph-4" unicode="&#xe804;" d="m873 683h-581v84h-209v-84h66l118-336-65-192c-4-13-2-27 6-38 8-10 20-17 34-17h466v83h-408l28 84h424c19 0 35 12 40 29l121 334c8 26-12 53-40 53z m-540-687c0-35-28-63-62-63s-63 28-63 63c0 34 28 62 63 62s62-28 62-62z m292 0c0-35-28-63-62-63s-63 28-63 63c0 34 28 62 63 62s62-28 62-62z" horiz-adv-x="1000" />
<glyph glyph-name="glyph-5" unicode="&#xe805;" d="m791 645c-81 81-188 122-294 122s-214-41-295-122c-163-163-163-427 0-590 81-81 188-122 295-122s213 41 294 122c163 163 163 427 0 590z m-59-531c-63-63-146-97-235-97s-173 34-236 97c-130 130-130 342 0 472 63 63 147 97 236 97s172-34 235-97c130-130 130-342 0-472z m-482 278h500v-84h-500v84z" horiz-adv-x="1000" />
<glyph glyph-name="glyph-6" unicode="&#xe806;" d="m167 225h149l-220-220 59-60 220 221v-149h83v291h-291z m738 471l-59 59-221-221v149h-83v-291h291v83h-149z" horiz-adv-x="1000" />
<glyph glyph-name="glyph-7" unicode="&#xe807;" d="m854 129l-354 354-353-354-59 59 412 413 413-413z" horiz-adv-x="1000" />
<glyph glyph-name="glyph-8" unicode="&#xe808;" d="m500 558c138 0 250-112 250-250s-112-250-250-250-250 113-250 250 112 250 250 250z m0 84c-184 0-333-150-333-334s149-333 333-333 333 149 333 333-149 334-333 334v0z m-125 125h250v-84h-250v84z m415-91l118-118-59-59-118 118 59 59z m-193-524l-139 139v184h84v-149l114-115z" horiz-adv-x="1000" />
<glyph glyph-name="glyph-9" unicode="&#xe809;" d="m696 362l-59 59-95-95v399h-84v-399l-95 95-59-59 196-196z m96-95v-209h-584v209h-83v-292h750v292z" horiz-adv-x="1000" />
<glyph glyph-name="glyph-10" unicode="&#xe80a;" d="m833 642h-666c-46 0-84-38-84-84v-375c0-45 38-83 84-83h666c46 0 84 38 84 83v375c0 46-38 84-84 84z m-333-286l-260 202h520l-260-202z m-185 38l-148-148v264l148-116z m66-52l93-72c8-6 17-9 26-9s18 3 26 9l93 72 159-159h-556l159 159z m304 52l148 116v-264l-148 148z" horiz-adv-x="1000" />
<glyph glyph-name="glyph-11" unicode="&#xe80b;" d="m497 767c-231 0-417-187-417-417s186-417 417-417 416 187 416 417c0 230-186 417-416 417z m209-564l-59-59-147 147-147-147-59 59 147 147-147 147 59 59 147-147 147 147 59-59-147-147 147-147z" horiz-adv-x="1000" />
<glyph glyph-name="glyph-12" unicode="&#xe80c;" d="m791 645c-162 162-426 162-589 0s-163-427 0-590c163-162 427-162 589 0s163 427 0 590z m-83-337h-416v84h416v-84z" horiz-adv-x="1000" />
<glyph glyph-name="glyph-13" unicode="&#xe80d;" d="m791 645c-81 81-188 122-294 122s-214-41-295-122c-163-163-163-427 0-590 81-81 188-122 295-122s213 41 294 122c163 163 163 427 0 590z m-59-531c-63-63-146-97-235-97s-173 34-236 97c-130 130-130 342 0 472 63 63 147 97 236 97s172-34 235-97c130-130 130-342 0-472z m-190 278v208h-84v-208h-208v-84h208v-208h84v208h208v84z" horiz-adv-x="1000" />
<glyph glyph-name="glyph-14" unicode="&#xe80e;" d="m432 340l-224-223v150h-83v-292h292v83h-150l223 224z m151 385v-83h150l-221-221 59-59 221 221v-150h83v292z" horiz-adv-x="1000" />
<glyph glyph-name="glyph-15" unicode="&#xe80f;" d="m500 100l-412 412 59 59 353-354 354 354 59-59z" horiz-adv-x="1000" />
<glyph glyph-name="glyph-16" unicode="&#xe810;" d="m500 683c184 0 333-149 333-333 0-89-34-173-97-236s-147-97-236-97c-89 0-173 34-236 97s-97 147-97 236c0 0 0 0 0 0h-84c0 0 0 0 0 0 0-230 187-417 417-417 0 0 0 0 0 0 230 0 417 187 417 417s-187 417-417 417v0z m42-319v236h-84v-271l175-176 60 59z" horiz-adv-x="1000" />
<glyph glyph-name="glyph-17" unicode="&#xe811;" d="m333-4c0-35-28-63-62-63s-63 28-63 63c0 34 28 62 63 62s62-28 62-62z m292 0c0-35-28-63-62-63s-63 28-63 63c0 34 28 62 63 62s62-28 62-62z m248 687h-581v84h-209v-84h66l58-166h335v83l208-125-208-125v83h-238l-7 3-1-3h-59l30-86-65-192c-4-13-2-27 6-38 8-10 20-17 34-17h466v83h-408l28 84h424c19 0 35 12 40 29l121 334c8 26-12 53-40 53z" horiz-adv-x="1000" />
<glyph glyph-name="glyph-18" unicode="&#xe812;" d="m750 100h-500v500h250v83h-333v-666h666v333h-83z m-125 667v-84h149l-293-293 59-59 293 293v-149h84v292z" horiz-adv-x="1000" />
<glyph glyph-name="glyph-19" unicode="&#xe813;" d="m125 642h750v-125h-750v125z m0-250h750v-125h-750v125z m0-250h750v-125h-750v125z" horiz-adv-x="1000" />
<glyph glyph-name="glyph-20" unicode="&#xe814;" d="m795 645c-82 81-188 122-295 122s-213-41-295-122c-162-163-162-427 0-590 82-81 188-122 295-122s213 41 295 122c162 163 162 427 0 590z m-59-531c-63-63-147-97-236-97s-173 34-236 97c-130 130-130 342 0 472 63 63 147 97 236 97s173-34 236-97c130-130 130-342 0-472z m-194 111h-84v59c0 43 35 64 60 79 32 19 51 32 51 70 0 37-29 63-68 63-40 0-68-26-68-63h-84c0 82 67 146 152 146 85 0 151-64 151-146 0-88-57-122-92-142-6-4-14-9-18-12v-54z m-84-45h84v-83h-84v83z" horiz-adv-x="1000" />
<glyph glyph-name="glyph-21" unicode="&#xe815;" d="m731 522l-88-88c15-25 24-53 24-84 0-92-75-167-167-167-31 0-59 9-84 24l-71-71c45-22 96-36 155-36 247 0 375 250 375 250s-48 98-144 172z m-210-92c-6 2-14 3-21 3-46 0-83-37-83-83 0-7 1-14 3-21l101 101z m-42-160c7-2 14-3 21-3 46 0 83 37 83 83 0 8-1 15-3 21l-101-101z m252 453l-135-135c-30 8-61 13-96 12-255-5-375-250-375-250s35-67 102-131l-100-100 59-58 604 603-59 59z m-398-373c0 92 75 167 167 167 8 0 15-1 23-2l-188-188c-1 8-2 15-2 23z" horiz-adv-x="1000" />
<glyph glyph-name="glyph-22" unicode="&#xe816;" d="m375 640v-167h-167v167h167z m83 83h-333v-333h333v333z m334-83v-167h-167v167h167z m83 83h-333v-333h333v333z m-500-504v-166h-167v166h167z m83 84h-333v-334h333v334z m334-84v-166h-167v166h167z m83 84h-333v-334h333v334z" horiz-adv-x="1000" />
<glyph glyph-name="glyph-23" unicode="&#xe817;" d="m125 725h750v-121h-750v121z m0-208h750v-122h-750v122z m0-209h750v-121h-750v121z m0-208h750v-122h-750v122z" horiz-adv-x="1000" />
<glyph glyph-name="glyph-24" unicode="&#xe818;" d="m125 722h125v-122h-125v122z m0-209h125v-121h-125v121z m0-208h125v-122h-125v122z m208 420h542v-121h-542v121z m0-208h542v-122h-542v122z m0-209h542v-121h-542v121z m-208-211h125v-122h-125v122z m208 3h542v-122h-542v122z" horiz-adv-x="1000" />
<glyph glyph-name="glyph-25" unicode="&#xe819;" d="m497 767c-115 0-220-47-295-122s-122-180-122-295c0-230 186-417 417-417 115 0 219 47 294 122s122 180 122 295c0 230-186 417-416 417z m333-417c0-89-35-173-98-236s-146-97-235-97c-184 0-334 149-334 333 0 89 35 173 98 236s147 97 236 97c183 0 333-149 333-333z m-570-295l-59 59 537 536 59-59-537-536z" horiz-adv-x="1000" />
<glyph glyph-name="glyph-26" unicode="&#xe81a;" d="m375 142h250v-42h-250v42z m0 125h250v-42h-250v42z m458 291h-83v209h-500v-209h-83c-46 0-84-37-84-83v-375h167v-167h500v167h167v375c0 46-38 83-84 83z m-625-169c-23 0-41 19-41 42s18 41 41 41 42-18 42-41c0-23-19-42-42-42z m459-289v-83h-334v333h334v-250z m0 458h-334v84h334v-84z" horiz-adv-x="1000" />
<glyph glyph-name="glyph-27" unicode="&#xe81b;" d="m780 88l-178 178c40 44 65 103 65 167 0 138-112 250-250 250s-250-112-250-250 112-250 250-250c43 0 83 11 119 31l185-185c8-8 18-12 29-12s21 4 30 12c16 16 16 43 0 59z m-530 345c0 92 75 167 167 167s166-75 166-167c0-53-25-99-64-130-3-2-6-3-8-6-1 0-1-1-2-2-26-18-58-28-92-28-92 0-167 74-167 166z" horiz-adv-x="1000" />
<glyph glyph-name="glyph-28" unicode="&#xe81c;" d="m750 433h-42v88c0 113-93 205-208 205s-208-93-208-206v-87h-42c-23 0-42-18-42-41v-375c0-23 19-42 42-42h500c23 0 42 19 42 42v375c0 23-19 41-42 41z m-375 87c0 66 57 123 125 123 69 0 125-55 125-122v-88h-250v87z m167-347v-52c0-23-19-42-42-42s-42 19-42 42v54c-41 14-41 41-41 71 0 46 37 83 83 83s84-37 84-83c0-31-1-58-42-73z" horiz-adv-x="1000" />
<glyph glyph-name="glyph-29" unicode="&#xe81d;" d="m292 433l208 250 208-250z m416-166l-208-250-208 250z" horiz-adv-x="1000" />
<glyph glyph-name="glyph-30" unicode="&#xe81e;" d="m917 313v83l-116 28c-8 35-23 67-42 96l58 98-59 59-100-60c-30 18-62 31-97 39l-28 111h-83l-29-114c-34-8-66-22-95-41l-99 59-58-59 60-100c-18-30-29-62-37-97l-109-28v-83l112-28c8-35 21-67 40-96l-60-98 59-59 100 60c30-18 62-31 97-39l27-111h84l28 114c35 8 67 22 96 41l98-59 59 59-60 100c18 30 33 62 41 97l113 28z m-421-109c-81 0-146 66-146 146s65 146 146 146c80 0 146-66 146-146s-66-146-146-146z" horiz-adv-x="1000" />
<glyph glyph-name="glyph-31" unicode="&#xe81f;" d="m667 183c-25 0-48-7-68-20l-189 148c4 12 7 25 7 39s-3 27-7 39l189 148c20-13 43-20 68-20 69 0 125 56 125 125s-56 125-125 125-125-56-125-125c0-14 2-27 7-39l-190-148c-19 13-42 20-67 20-69 0-125-56-125-125s56-125 125-125c25 0 48 8 67 20l190-148c-5-12-7-25-7-39 0-69 56-125 125-125s125 56 125 125-56 125-125 125z" horiz-adv-x="1000" />
<glyph glyph-name="glyph-32" unicode="&#xe820;" d="m791 645c-162 162-426 162-589 0s-163-427 0-590c163-162 427-162 589 0s163 427 0 590z m-261-411l-59-59-167 167 59 59 108-108 220 220 59-58-220-221z" horiz-adv-x="1000" />
<glyph glyph-name="glyph-33" unicode="&#xe821;" d="m500 600c138 0 250-112 250-250s-112-250-250-250-250 112-250 250 112 250 250 250z m0 83c-184 0-333-149-333-333s149-333 333-333 333 149 333 333-149 333-333 333v0z m97-489l-139 139v184h84v-150l114-114z" horiz-adv-x="1000" />
<glyph glyph-name="glyph-34" unicode="&#xe822;" d="m750 392h-375v169c0 66 57 122 125 122 69 0 125-54 125-121v-45h83v45c0 113-93 205-208 205s-208-93-208-206v-169h-42c-23 0-42-19-42-42v-375c0-23 19-42 42-42h500c23 0 42 19 42 42v375c0 23-19 42-42 42z m-208-261v-53c0-23-19-41-42-41s-42 18-42 41v54c-41 15-41 41-41 71 0 46 37 84 83 84s84-38 84-84c0-31-1-58-42-72z" horiz-adv-x="1000" />
<glyph glyph-name="glyph-35" unicode="&#xe823;" d="m458 583v-400h84v400l95-96 59 59-196 196-196-196 59-59z m334-316v-209h-584v209h-83v-292h750v292z" horiz-adv-x="1000" />
<glyph glyph-name="glyph-36" unicode="&#xe824;" d="m500 600c-255-5-375-250-375-250s128-250 375-250 375 250 375 250-125 255-375 250z m0-417c-92 0-167 75-167 167s75 167 167 167 167-75 167-167c0-92-75-167-167-167z m83 167c0-46-37-83-83-83s-83 37-83 83c0 46 37 83 83 83s83-37 83-83z" horiz-adv-x="1000" />
<glyph glyph-name="glyph-37" unicode="&#xe825;" d="m497 767c-231 0-417-187-417-417s186-417 417-417 416 187 416 417-186 417-416 417z m45-667h-84v83h84v-83z m0 167h-84v333h84v-333z" horiz-adv-x="1000" />
<glyph glyph-name="google" unicode="&#xe826;" d="m372 653c-53 3-89-53-80-122 8-70 61-120 114-120 52-3 83 45 75 114-12 69-56 128-109 128z m22-386c-80 0-147-50-147-109 0-61 59-111 136-111 111 0 150 47 150 109 0 8 0 13-2 22-9 33-45 53-87 83-13 3-30 6-50 6z m531 583h-850c-42 0-75-33-75-72v-856c0-39 33-72 75-72h853c41 0 75 33 75 72v856c-3 39-36 72-78 72z m-367-322c0-45-25-78-58-106-33-25-39-36-39-58 0-20 39-47 58-61 64-47 78-78 78-139 0-75-80-150-211-150-114 0-211 47-211 122s81 156 194 156c14 0 25 0 37 0-17 16-28 27-28 52 0 14 5 28 11 39-6 0-14 0-20 0-94 0-150 67-150 150 0 81 84 156 184 156 53 0 197 0 197 0l-44-50h-53c36-20 55-64 55-111z m270-161h-78v-78h-44v78h-78v44h78v78h44v-78h78v-44z" horiz-adv-x="1003" />
<glyph glyph-name="facebook" unicode="&#xe827;" d="m944 850h-888c-31 0-56-25-56-56v-888c0-31 25-56 56-56h477v386h-130v150h130v111c0 128 78 200 195 200 55 0 103-3 116-5v-136h-80c-64 0-75-31-75-73v-97h150l-20-150h-130v-386h255c31 0 56 25 56 56v888c0 31-25 56-56 56z" horiz-adv-x="1000" />
<glyph glyph-name="linkedin" unicode="&#xe828;" d="m925 850h-853c-39 0-72-33-72-72v-856c0-39 33-72 75-72h853c41 0 75 33 75 72v856c-3 39-36 72-78 72z m-628-853h-147v478h147v-478z m-75 545c-47 0-86 39-86 86s39 86 86 86 86-39 86-86c0-50-39-86-86-86z m631-545h-147v234c0 55 0 127-78 127s-89-61-89-122v-236h-150v475h142v-64h2c20 39 70 78 142 78 150 0 178-100 178-228v-264l0 0z" horiz-adv-x="1003" />
<glyph glyph-name="twitter" unicode="&#xe829;" d="m928 850h-853c-42 0-75-33-75-72v-856c0-39 33-72 75-72h853c41 0 75 33 75 72v856c0 39-34 72-75 72z m-225-397c0-6 0-9 0-14 0-136-103-292-292-292-58 0-111 17-158 47 8 0 16-2 25-2 47 0 91 16 128 44-45 0-84 31-95 72 6 0 14-2 20-2 8 0 19 0 27 2-47 9-83 50-83 100l0 0c14-8 31-11 47-14-28 20-44 50-44 87 0 19 5 36 14 52 50-61 125-102 211-108-3 8-3 17-3 22 0 56 47 103 103 103 30 0 55-11 75-33 22 5 44 14 64 25-9-25-25-45-45-56 20 3 42 8 59 17-17-20-34-36-53-50z" horiz-adv-x="1003" />
</font>
</defs>
</svg>
